<?xml version="1.0" encoding="utf-8"?>
<!-- Generator: Adobe Illustrator 12.0.0, SVG Export Plug-In  -->
<!DOCTYPE svg PUBLIC "-//W3C//DTD SVG 1.1//EN" "http://www.w3.org/Graphics/SVG/1.1/DTD/svg11.dtd" [
	<!ENTITY ns_flows "http://ns.adobe.com/Flows/1.0/">
	<!ENTITY ns_svg "http://www.w3.org/2000/svg">
	<!ENTITY ns_xlink "http://www.w3.org/1999/xlink">
]>
<svg  version="1.1" xmlns="&ns_svg;" xmlns:xlink="&ns_xlink;" xmlns:a="http://ns.adobe.com/AdobeSVGViewerExtensions/3.0/"
	 width="242" height="242" viewBox="0.005 0 242 242" enable-background="new 0.005 0 242 242" xml:space="preserve">
<defs>
</defs>
<g>
	<path fill="#FFFFFF" d="M135.36,214.121V103.215h40.048V75.486H67.073v27.729h40.046v110.906
		c-45.124-6.832-79.822-45.879-79.822-92.881c0-51.8,42.143-93.943,93.943-93.943c51.801,0,93.944,42.143,93.944,93.943
		c0,18.924-5.635,36.548-15.303,51.305l22,16.227c13.002-19.313,20.6-42.55,20.6-67.531C242.481,54.389,188.092,0,121.24,0
		S0,54.389,0,121.24c0,66.854,54.388,121.241,121.24,121.241c4.781,0,9.495-0.287,14.133-0.828v-27.535
		C135.369,214.119,135.364,214.12,135.36,214.121"/>
	<path fill="#03E26D" d="M197.382,211.306c0,10.767-8.728,19.496-19.496,19.496c-10.767,0-19.494-8.729-19.494-19.496
		s8.728-19.496,19.494-19.496C188.655,191.81,197.382,200.54,197.382,211.306"/>
</g>
</svg>
